/* XPM */
static char * dooropen_xpm[] = {
"64 64 360 2",
"  	c #2F484E",
". 	c #3F5257",
"+ 	c #4B5B5F",
"@ 	c #394E54",
"# 	c #616C70",
"$ 	c #586569",
"% 	c #3B4F55",
"& 	c #606C6F",
"* 	c #5C686C",
"= 	c #586669",
"- 	c #5C696D",
"; 	c #324A4F",
"> 	c #2E484E",
", 	c #536165",
"' 	c #554E53",
") 	c #CD3E41",
"! 	c #DD1417",
"~ 	c #DD1317",
"{ 	c #DA2829",
"] 	c #DB2425",
"^ 	c #DD2425",
"/ 	c #DE1518",
"( 	c #DE1719",
"_ 	c #DD1316",
": 	c #DD1E21",
"< 	c #B6484B",
"[ 	c #3C5055",
"} 	c #677174",
"| 	c #576468",
"1 	c #4C5C60",
"2 	c #9C3F43",
"3 	c #E70103",
"4 	c #E50103",
"5 	c #E40103",
"6 	c #E80305",
"7 	c #E8090A",
"8 	c #E70002",
"9 	c #58484E",
"0 	c #5A676B",
"a 	c #9D383C",
"b 	c #DB0203",
"c 	c #B40403",
"d 	c #B20402",
"e 	c #B10402",
"f 	c #B20906",
"g 	c #BA0403",
"h 	c #E50203",
"i 	c #E70102",
"j 	c #5B444A",
"k 	c #E90103",
"l 	c #880602",
"m 	c #671E1C",
"n 	c #493D3F",
"o 	c #282F32",
"p 	c #604242",
"q 	c #72100C",
"r 	c #AB0502",
"s 	c #EA0102",
"t 	c #920401",
"u 	c #AF0100",
"v 	c #AF1A19",
"w 	c #A63536",
"x 	c #944143",
"y 	c #7B4347",
"z 	c #645054",
"A 	c #394C51",
"B 	c #4F5155",
"C 	c #6E474B",
"D 	c #884346",
"E 	c #9B3638",
"F 	c #AE302F",
"G 	c #AE0000",
"H 	c #B10100",
"I 	c #9C0502",
"J 	c #AC0100",
"K 	c #AD0100",
"L 	c #AF0201",
"M 	c #AF2A29",
"N 	c #A03A3B",
"O 	c #8A3F42",
"P 	c #764B4F",
"Q 	c #595155",
"R 	c #434F54",
"S 	c #664C50",
"T 	c #804548",
"U 	c #963E3F",
"V 	c #AA3B3B",
"W 	c #AF0807",
"X 	c #AA0100",
"Y 	c #9B0502",
"Z 	c #44555A",
"` 	c #374D53",
" .	c #9E0401",
"..	c #880401",
"+.	c #8D0301",
"@.	c #9B0806",
"#.	c #A70504",
"$.	c #7C4A4E",
"%.	c #AB5050",
"&.	c #AD0101",
"*.	c #AF0101",
"=.	c #A10200",
"-.	c #940301",
";.	c #860301",
">.	c #AA0302",
",.	c #405358",
"'.	c #C10102",
").	c #E80103",
"!.	c #DD0203",
"~.	c #CB0707",
"{.	c #B50504",
"].	c #9D0402",
"^.	c #8A0301",
"/.	c #920301",
"(.	c #9E0201",
"_.	c #AE0101",
":.	c #7C464A",
"<.	c #AB4F50",
"[.	c #A50201",
"}.	c #990301",
"|.	c #8B0301",
"1.	c #930302",
"2.	c #A80302",
"3.	c #BF0303",
"4.	c #D30203",
"5.	c #DF0103",
"6.	c #DA0203",
"7.	c #AB0302",
"8.	c #AC0101",
"9.	c #AE4F50",
"0.	c #920300",
"a.	c #E30203",
"b.	c #DE0102",
"c.	c #BF0201",
"d.	c #940300",
"e.	c #EA0103",
"f.	c #910401",
"g.	c #BF0202",
"h.	c #910301",
"i.	c #EA0104",
"j.	c #E60103",
"k.	c #DC0103",
"l.	c #900401",
"m.	c #BE0202",
"n.	c #E30103",
"o.	c #9B383C",
"p.	c #E20103",
"q.	c #A34F52",
"r.	c #910400",
"s.	c #AC0201",
"t.	c #7D474B",
"u.	c #8F0301",
"v.	c #364C52",
"w.	c #636E71",
"x.	c #9E4347",
"y.	c #900400",
"z.	c #BD0303",
"A.	c #AD0908",
"B.	c #505F63",
"C.	c #9D373C",
"D.	c #BD0706",
"E.	c #AD0706",
"F.	c #BD0202",
"G.	c #AC0202",
"H.	c #C10101",
"I.	c #BC0202",
"J.	c #8F0300",
"K.	c #B35554",
"L.	c #7B464A",
"M.	c #B47272",
"N.	c #B20100",
"O.	c #9A0502",
"P.	c #BC0302",
"Q.	c #D1B4B4",
"R.	c #7C4B4E",
"S.	c #D5C1C0",
"T.	c #880C0C",
"U.	c #DE0103",
"V.	c #D50103",
"W.	c #CC0102",
"X.	c #B70201",
"Y.	c #D6BEBE",
"Z.	c #886C6E",
"`.	c #DACECD",
" +	c #AC4D4D",
".+	c #C70101",
"++	c #D10102",
"@+	c #DA0103",
"#+	c #655459",
"$+	c #BD0101",
"%+	c #D80103",
"&+	c #CE0102",
"*+	c #C50101",
"=+	c #B60101",
"-+	c #AE0100",
";+	c #C9BBB9",
">+	c #877071",
",+	c #CBCBC9",
"'+	c #B25556",
")+	c #B30100",
"!+	c #BF0101",
"~+	c #C90102",
"{+	c #D30102",
"]+	c #675559",
"^+	c #3A4F54",
"/+	c #DAC2C2",
"(+	c #8A6F71",
"_+	c #DED2D2",
":+	c #B25352",
"<+	c #A60201",
"[+	c #990201",
"}+	c #D1B9B8",
"|+	c #7E5054",
"1+	c #DAC7C7",
"2+	c #901B1A",
"3+	c #9F0201",
"4+	c #850301",
"5+	c #7A0401",
"6+	c #9F0402",
"7+	c #AF0302",
"8+	c #B26E6D",
"9+	c #B98383",
"0+	c #CB0203",
"a+	c #8D0401",
"b+	c #7B0401",
"c+	c #9B0201",
"d+	c #A70200",
"e+	c #B00101",
"f+	c #A40201",
"g+	c #7F0401",
"h+	c #A20302",
"i+	c #BF0302",
"j+	c #D60203",
"k+	c #C10202",
"l+	c #8E0301",
"m+	c #CC0203",
"n+	c #B20302",
"o+	c #750401",
"p+	c #D80203",
"q+	c #D00203",
"r+	c #C30302",
"s+	c #EB0304",
"t+	c #930E0B",
"u+	c #900301",
"v+	c #E70304",
"w+	c #E90B0C",
"x+	c #B10201",
"y+	c #E80607",
"z+	c #EB0A0C",
"A+	c #910805",
"B+	c #CB0102",
"C+	c #C40202",
"D+	c #A50200",
"E+	c #804D51",
"F+	c #E80A0B",
"G+	c #E90507",
"H+	c #9D383D",
"I+	c #E90A0B",
"J+	c #EB0506",
"K+	c #C50202",
"L+	c #A40200",
"M+	c #815356",
"N+	c #E80406",
"O+	c #9E383D",
"P+	c #E9090B",
"Q+	c #EB0102",
"R+	c #9F0200",
"S+	c #85585B",
"T+	c #4C5B60",
"U+	c #910302",
"V+	c #E80405",
"W+	c #E80909",
"X+	c #E8090B",
"Y+	c #C40303",
"Z+	c #A10201",
"`+	c #E70305",
" @	c #B00100",
".@	c #990502",
"+@	c #C60302",
"@@	c #A30201",
"#@	c #E80608",
"$@	c #980501",
"%@	c #C70203",
"&@	c #950302",
"*@	c #980601",
"=@	c #C70202",
"-@	c #A30200",
";@	c #960301",
">@	c #CA0102",
",@	c #E80708",
"'@	c #C80202",
")@	c #A20200",
"!@	c #AC5050",
"~@	c #AA0201",
"{@	c #D60102",
"]@	c #AB2C2B",
"^@	c #674A4E",
"/@	c #994E4F",
"(@	c #AF0706",
"_@	c #B70101",
":@	c #D20102",
"<@	c #DB0102",
"[@	c #AD1F1F",
"}@	c #8A4447",
"|@	c #454C51",
"1@	c #6C5054",
"2@	c #A23B3D",
"3@	c #AE0200",
"4@	c #B40101",
"5@	c #D70102",
"6@	c #AF1919",
"7@	c #924244",
"8@	c #575256",
"9@	c #374C52",
"0@	c #754D50",
"a@	c #A63234",
"b@	c #B10101",
"c@	c #8E0401",
"d@	c #BD0102",
"e@	c #B90101",
"f@	c #AF0D0B",
"g@	c #9B4244",
"h@	c #5B4D52",
"i@	c #3A4C51",
"j@	c #824F52",
"k@	c #AA2F2F",
"l@	c #C40102",
"m@	c #8C0401",
"n@	c #9F3739",
"o@	c #6B5155",
"p@	c #454F54",
"q@	c #87474A",
"r@	c #AC2928",
"s@	c #AB0101",
"t@	c #8F0401",
"u@	c #A63737",
"v@	c #734D51",
"w@	c #737376",
"x@	c #8D4A4C",
"y@	c #AF2021",
"z@	c #A14C4F",
"A@	c #7F0000",
"B@	c #855B5D",
"C@	c #394C52",
"D@	c #5F6B6E",
"E@	c #5B676B",
"F@	c #524A4F",
"G@	c #994445",
"H@	c #970502",
"I@	c #62595D",
"J@	c #78484D",
"K@	c #774046",
"L@	c #314046",
"M@	c #596669",
"N@	c #4A5A5F",
"O@	c #2F474D",
"P@	c #504046",
"Q@	c #764046",
"R@	c #3B474D",
"S@	c #556367",
"                                                                                                                                ",
"                                                                                                                                ",
"                                                                                                                                ",
"                                                                                                                                ",
"                                                          . +                                                             . +   ",
"                                                        @ # $                                                           @ # $   ",
"                                                      % & *                                                           % & *     ",
"                                                      = - ;                                                         > , * ;     ",
"                        ' ) ! ~ ~ ~ ~ ~ ~ ~ ~ ~ ~ ~ { ] ^ ~ ~ ~ ~ ~ ~ ~ ~ ~ ~ ~ ~ ~ ~ / ( ( _ ~ ~ ~ : <           [ } | 1       ",
"                        2 3 3 3 3 3 3 3 3 3 3 3 3 4 5 3 3 3 3 3 3 3 3 3 3 3 3 3 3 3 6 7 6 3 3 3 3 3 3 8 9         , 0           ",
"                        a 3 3 b c d d d d d d d d d e d d d d d d d d d d d d d d d d f d d d d g h 3 i j           %           ",
"                        a 3 k l m n o o o o o o o o o o o o o o o o o o o o o o o o o o o o o p q r 3 i j                       ",
"                        a 3 s t u v w x y z A                                     > B C D E F G H I 3 i j                       ",
"                        a 3 s t J K u u u L M N O P Q >                   R S T U V W u u u u X H Y 3 i j                       ",
"          Z `           a 3 s t L  ...+.@.#.u u u L G $.                  %.&.*.u u J =.-.;.t >.H Y 3 i j                       ",
"          . ,.          a 3 s t '.3 ).!.~.{.].^./.(._.:.                  <.[.}.|.1.2.3.4.4 ).5.H Y 3 i j                       ",
"                        a 3 s t '.3 3 3 3 3 3 ).6.7.8.:.                  9.0.4.a.).3 3 3 3 3 b.H Y 3 i j                       ",
"                        a 3 s t '.3 3 3 3 3 3 3 3 c.8.:.                  9.d.e.3 3 3 3 3 3 3 b.H Y 3 i j                       ",
"                        a 3 s t '.3 3 3 3 3 3 3 3 c.8.:.                  9./.e.3 3 3 3 3 3 3 b.H Y 3 i j                       ",
"                        a 3 e.f.'.3 3 3 3 3 3 3 3 g.8.:.                  9.h.i.3 3 3 3 3 3 j.k.H Y 3 i j                       ",
"                        a j.j.l.'.3 3 3 3 3 3 3 3 m.8.:.                  9.h.i.3 3 3 3 3 3 n.6.H Y 3 i j                       ",
"                        o.p.3 t '.3 3 3 3 3 3 3 3 m.8.:.                  9.h.i.3 3 3 3 j.p.5 b.H Y 3 i j                       ",
"                      > q.n.e.r.'.3 3 3 3 3 3 3 3 m.s.t.                  9.u.e.3 3 3 3 5 n.3 b.H Y 3 i j                       ",
"                    v.w.x.4 s y.'.3 3 3 3 3 3 3 3 z.A.t.                  9.u.e.3 3 j.n.5 4 3 b.H Y 3 i j                       ",
"                    B.$ C.3 s y.'.3 3 3 3 3 3 3 3 D.E.:.                  9.u.e.3 3 5 5 3 3 3 b.H Y 3 i j                       ",
"                      ` a 3 s y.'.3 3 3 3 3 3 3 3 F.G.:.                  9.u.k 3 3 3 j.3 3 3 b.H Y 3 i j                       ",
"                        a 3 s y.H.3 3 3 3 3 3 3 3 I.8.:.                  9.J.k 3 3 3 3 3 3 3 b.H Y 3 i j                       ",
"                        a 3 s y.'.3 3 3 3 3 3 3 3 I.K.L.                  M.u.k 3 3 3 3 3 3 3 b.N.O.3 i j                       ",
"                        a 3 s y.'.3 3 3 3 3 3 3 3 P.Q.R.                  S.T.).3 3 3 3 3 3 3 b.N.O.3 i j                       ",
"                        a 3 s y.'.3 3 3 5 j.U.V.W.X.Y.Z.                  `. +.+++@+n.).3 3 3 b.N.O.3 i #+[                     ",
"                        a 3 s y.$+%+&+*+=+-+u u u u ;+>+                  ,+'+u u u -+)+!+~+{+{+N.O.3 i ]+^+                    ",
"                        a 3 s y.u u u u u u u u u u /+(+                  _+:+u u u u u u u u u N.O.3 i j                       ",
"                        a 3 s y.u u u u u u u <+[+|.}+|+                  1+2+/.3+J u u u u u u N.O.3 i j                       ",
"                        a 3 s y.u *.K =.-.4+5+6+P.7+8+L.                  9+|.0+7+a+b++.c+d+e+u N.O.3 i j                       ",
"                        a 3 s y.f+g+5+h+i+j+).3 3 k+<+:.                  9.l+e.3 ).p.m+n+f.o+|.)+O.3 i j                       ",
"                        a 3 s y.F.p+).3 3 3 3 3 3 k+<+:.                  9.l+e.3 3 3 3 3 ).n.q+N.O.3 i j                       ",
"                        a 3 e.l.W.3 3 3 3 3 3 3 3 r+[.:.  . +             9.u.e.3 3 3 3 3 3 3 ).H O.3 i j                 . +   ",
"                        a 3 s+t+m+3 3 3 3 3 3 3 3 r+[.:.@ # $             9.u+k 3 3 3 3 3 3 v+w+x+O.3 i j               @ # $   ",
"                        a y+z+A+B+3 3 3 3 3 3 3 3 C+D+E+& *               9.u+k 3 3 3 3 3 y+F+G+H O.3 i j             % & *     ",
"                        H+I+J+l.B+3 3 3 3 3 3 3 3 K+L+M+* ;               9.h.k 3 3 3 3 6 I+N+).H O.3 i j           > , * ;     ",
"                        O+P+Q+l.B+3 3 3 3 3 3 3 3 C+R+S+T+                9.U+k 3 3 3 V+W+X+3 i H O.3 i j         [ } | 1       ",
"                        a 3 s l.B+3 3 3 3 3 3 3 3 Y+Z+:.                  9./.k 3 3 6 P+`+3 3 i  @.@3 i j         , 0           ",
"                        a 3 s l.B+3 3 3 3 3 3 3 3 +@@@:.                  9.-.k 3 3 3 #@3 3 3 i e+$@3 i j           %           ",
"                        a 3 s l.B+3 3 3 3 3 3 3 3 %@@@:.                  9.&@k 3 3 3 3 3 3 3 i e+*@3 i j                       ",
"                        a 3 s l.B+3 3 3 3 3 3 3 3 =@-@:.                  9.;@).3 3 3 3 3 3 3 i e+*@3 i j                       ",
"                        a 3 s l.>@3 3 3 3 3 3 3 3 =@-@:.                  9.;@).3 3 3 3 3 3 3 i e+*@3 i j                       ",
"          Z `           a 3 s l.>@3 3 3 ,@V+3 3 3 '@)@:.                  !@;@).3 3 3 3 3 3 3 3  @*@3 i j                       ",
"          . ,.          a 3 s l.>@3 3 3 y+v+3 3 p.g.&.:.                  <.~@{@3 3 3 3 3 3 3 3  @*@3 i j                       ",
"                        a 3 s l.>@3 3 3 3 3 5.*+*.u ]@^@                  /@(@u _@:@j.3 3 3 3 3  @*@3 i j                       ",
"                        a 3 s l.>@3 3 ).<@H.u u [@}@|@                      1@2@3@u 4@&+5 3 3 3  @*@3 i j                       ",
"                        a 3 s l.>@3 5@$+u u 6@7@8@                            9@0@a@L u b@>@p.3  @*@3 i j                       ",
"                        a 3 e.c@d@e@u u f@g@h@                                    i@j@k@u u u l@H *@3 i j                       ",
"                        a j.j.m@u u u n@o@                                            p@q@r@s@s@N.*@3 i j                       ",
"                        o.p.3 t@*.u@v@>                                                 % w@x@y@b@*@3 i j                       ",
"                      > z@n.s A@B@C@                                                  > D@E@; F@G@H@i i j                       ",
"                    v.w.I@J@K@L@^+                                                  v.w.M@N@    O@P@Q@Q@R@                      ",
"                    B.$                                                             B.$                                         ",
"                      `                                                               `                                         ",
"                                                                                                                                ",
"                                                                                                                                ",
"                                                                                                                                ",
"                                      > S@[                                                           > S@[                     ",
"                                        + ^+                                                            + ^+                    ",
"                                                                                                                                "};
