/* XPM */
static char * doorclose_xpm[] = {
"64 64 99 2",
"  	c #8C2820",
". 	c #721C15",
"+ 	c #EAE1CC",
"@ 	c #F1EDDF",
"# 	c #923730",
"$ 	c #81201A",
"% 	c #62150F",
"& 	c #530C07",
"* 	c #B94439",
"= 	c #6D2F2B",
"- 	c #C14033",
"; 	c #59110C",
"> 	c #580E08",
", 	c #6C1912",
"' 	c #7E1B14",
") 	c #B3392D",
"! 	c #D7C7A4",
"~ 	c #860D09",
"{ 	c #891C13",
"] 	c #87140F",
"^ 	c #8A1F19",
"/ 	c #850800",
"( 	c #E1D1C4",
"_ 	c #D3BF9E",
": 	c #C9AD8F",
"< 	c #EDE5D7",
"[ 	c #E6DCC4",
"} 	c #A33228",
"| 	c #8D271D",
"1 	c #F5F5EC",
"2 	c #791F19",
"3 	c #A9352A",
"4 	c #FFDD65",
"5 	c #FFD753",
"6 	c #F3F0E3",
"7 	c #FFEA8A",
"8 	c #FFE26F",
"9 	c #FFCE00",
"0 	c #FFC600",
"a 	c #C54134",
"b 	c #661711",
"c 	c #9D4D37",
"d 	c #670000",
"e 	c #FFE477",
"f 	c #FCBF33",
"g 	c #871D21",
"h 	c #FFD247",
"i 	c #FFE56A",
"j 	c #D8C5B1",
"k 	c #DDD0B4",
"l 	c #D1BAA3",
"m 	c #851115",
"n 	c #913126",
"o 	c #C0322C",
"p 	c #C4563F",
"q 	c #BD865A",
"r 	c #DDB478",
"s 	c #F7D98C",
"t 	c #FFE48E",
"u 	c #D0A06B",
"v 	c #E6C07E",
"w 	c #B67952",
"x 	c #4E0000",
"y 	c #7C3022",
"z 	c #93563B",
"A 	c #DFB265",
"B 	c #973913",
"C 	c #F3D17D",
"D 	c #9E764F",
"E 	c #8B4A34",
"F 	c #BD8F5F",
"G 	c #E7C681",
"H 	c #FFEA87",
"I 	c #F4BA0F",
"J 	c #FFD435",
"K 	c #C67E0F",
"L 	c #E6A500",
"M 	c #B98644",
"N 	c #FAB830",
"O 	c #D99124",
"P 	c #C17525",
"Q 	c #9D4425",
"R 	c #9D580E",
"S 	c #AA5726",
"T 	c #AC6F38",
"U 	c #843311",
"V 	c #E09E22",
"W 	c #D66F2E",
"X 	c #B62E30",
"Y 	c #8B460D",
"Z 	c #FFCB47",
"` 	c #6A0814",
" .	c #773710",
"..	c #AE6819",
"+.	c #A05717",
"@.	c #C98D09",
"#.	c #7B2A14",
"$.	c #AC5C19",
"%.	c #883C11",
") } } } } } } } } } } } } } } } } } } } } } } } } } } } } } } } } } } } } } } } } } } } } } } } } } } } } } } } } } } } } } } n ",
"} . . . . . . . . . . . . . . . . . . . . . . . . . . . . . . . . . . . . . . . . . . . . . . . . . . . . . . . . . . . . . . . ",
"} . . . . . . . . . . . . . . . . . . . . . . . . . . . . . . . . . . . . . . . . . . . . . . . . . . . . . . . . . . . . . . . ",
"} . . . 2 2 2 2 2 2 2 2 2 2 2 2 2 2 2 2 2 2 2 2 2 2 2 2 2 2 2 2 2 2 2 2 2 2 2 2 2 2 2 2 2 2 2 2 2 2 2 2 2 2 2 2 2 2 2 2 . . . . ",
"} . . 2                                                       $ $                                                       2 . . . ",
"} . . 2                                                       $ $                                                       2 . . . ",
"} . . 2                                                       $ $                                                       2 . . . ",
"} . . 2                                                       $ $                                                       2 . . . ",
"} . . 2         z : : : : : : : : : : : : : : : : : :         $ $         F : : : : : : : : : : : : : : : : : D         2 . . . ",
"} . . 2         D k < < < < + [ [ + < [ [ [ [ [ [ [ (         $ $         : + < < < < + [ + < + [ [ [ [ [ [ < w         2 . . . ",
"} . . 2         D k @ @ @ @ @ + + < @ + + + + + + + (         $ $         : + @ @ @ @ < + + @ < + + + + + + < w         2 . . . ",
"} . . 2         D k < @ @ @ @ < + < @ < + + + + + + (         $ $         : + @ @ @ @ @ + + @ @ + + + + + + < w         2 . . . ",
"} . . 2         D k < @ @ @ @ < + + @ @ + + + + + + (         $ $         : + @ @ @ @ @ + + < @ + + + + + + < w         2 . . . ",
"} . . 2         D k + @ @ @ @ @ + + @ @ + + + + + + (         $ $         : + < @ @ @ @ < + + @ < + + + + + < w         2 . . . ",
"} . . 2         D k + @ @ @ @ @ + + < @ < + + + + + (         $ $         : + + @ @ @ @ < + + @ @ + + + + + < w         2 . . . ",
"} . . 2         D k + < @ @ @ @ < + + @ < + + + + + (         $ $         : + + @ @ @ @ @ + + @ @ + + + + + < w         2 . . . ",
"} . . 2         D k + + @ @ @ @ @ + + @ @ + + + + + (         $ $         : + + @ @ @ @ @ + + < @ < + + + + < w         2 . . . ",
"} . . 2         D k + + @ @ @ @ @ + + < @ + + + + + (         $ $         : + + < @ @ @ @ < + + @ < + + + + < w         2 . . . ",
"} . . 2         D k + + < @ @ @ @ < + < @ < + + + + (         $ $         : + + + @ @ @ @ @ + + @ @ + + + + < w         2 . . . ",
"} . . 2         D k + + < @ @ @ @ < + + @ @ + + + + (         $ $         : + + + @ @ @ @ @ + + < @ + + + + < w         2 . . . ",
"} . . 2         D k + + + @ @ @ @ @ + + @ @ + + + + (         $ $         : + + + < @ @ @ @ < + < @ < + + + < w         2 . . . ",
"} . . 2         D k + + + @ @ @ @ @ + + < @ < + + + (         $ $         : + + + < @ @ @ @ < + + @ @ + + + < w         2 . . . ",
"} . . 2         D k + + + < @ @ @ @ < + + @ < + + + (         $ $         : + + + + @ @ @ @ @ + + @ @ + + + < w         2 . . . ",
"} . . 2         D k + + + + @ @ @ @ @ + + @ @ + + + (         $ $         : + + + + < @ @ @ @ + + < @ < + + < w         2 . . . ",
"} . . 2         D k + + + + @ @ @ @ @ + + < @ + + + (         $ $         : + + + + < @ @ @ @ < + + @ < + + < w         2 . . . ",
"} . . 2         D k + + + + < @ @ @ @ < + < @ < + + (         $ $         : + + + + + @ @ @ @ @ + + @ @ + + < w         2 . . . ",
"} . . 2         D k + + + + < @ @ @ @ < + + @ @ + + (         $ $         : + + + + + @ @ @ @ @ + + < @ + + < w         2 . . . ",
"} . . 2         D k + + + + + @ @ @ @ @ + + @ @ + + (         $ $         : + + + + + < @ @ @ @ < + < @ < + < w         2 . . . ",
"} . . 2         D k + + + + + @ @ @ @ @ + + < @ < + (         $ $         : + + + + + < @ @ @ @ < + + @ @ + < w         2 . . . ",
"} . . 2         D k + + + + + < @ @ @ @ < + + @ < + (         $ $         : + + + + + + @ @ @ @ @ + + @ @ + < w         2 . . . ",
"} . . 2         D k + + + + + + @ @ @ @ < + + @ @ + (         $ $         : + + + + + + @ @ @ @ @ + + < @ < < w         2 . . . ",
"} . . 2         D k < < < < < < 6 6 6 6 6 < < @ 6 < (         $ $         : < < < < < < @ 6 6 6 6 @ < < 6 @ @ w         2 . . . ",
"} . . 2         z : : : : : : : : : : : : : : : : : :         $ $         F : : : : : : : : : : : : : : : : : z         2 . . . ",
"} . . 2                                                       $ $                                                       2 . . . ",
"} . . 2                                                       $ $                                                       2 . . . ",
"} . . 2         $ ; % % % % % . }     % % % % % % % }         $ $     n | b % % % % % % }     2 ; % % % % % b           2 . . . ",
"} . . 2         $ % . . . . . n 3     % . . . D w F A 4 8 M   $ $ n A 8 C A F D z . . . )     2 b . . . . . .           2 . . . ",
"} . . 2         $ % . . . . . n 3     % . . y A A A O P h N   $ $ $.h N T M A A A . . . )     2 b . . . . . .           2 . . . ",
"} . . 2         $ % . . . . . n 3     % . . . . . $ )   ..+.  $ $   ..+.  b . . . . . . )     2 b . . . . . .           2 . . . ",
"} . . 2         $ % . . . . . n 3     % . . . . . $ )         $ $         b . . . . . . )     2 b . . . . . .           2 . . . ",
"} . . 2         $ % . . . . . n 3     % . . . . . $ )         $ $         b . . . . . . )     2 b . . . . . .           2 . . . ",
"} . . 2         $ % . . . . . n 3     % . . . . . $ )         $ $         b . . . . . . )     2 b . . . . . .           2 . . . ",
"} . . 2         $ % . . . . . n 3     % . . . . . $ )         $ $         b . . . . . . )     2 b . . . . . .           2 . . . ",
"} . . 2         $ % . . . . . n 3     % . . . . . $ )         $ $         b . . . . . . )     2 b . . . . . .           2 . . . ",
"} . . 2         $ , $ $ $ $ $ } 3     % $ $ $ $ $   )         $ $         b $ $ $ $ $ $ )     2 b . . . . . .           2 . . . ",
"} . . 2           3 ) ) ) ) ) ) }     n ) ) ) ) ) ) 3         $ $         n ) ) ) ) ) ) )     $ 2 2 2 2 2 2 2           2 . . . ",
"} . . 2                                                       $ $                                                       2 . . . ",
"} . . 2                                                       $ $                                                       2 . . . ",
"} . . 2                                                       $ $                                                       2 . . . ",
"} . . 2                                                       $ $                                                       2 . . . ",
"} . . 2                                                       $ $                                                       2 . . . ",
"} . . 2                                                       $ $                                                       2 . . . ",
"} . . 2                                                       $ $                                                       2 . . . ",
"} . . 2                                                       $ $                                                       2 . . . ",
"} . . 2                                                       $ $                                                       2 . . . ",
"} . . 2                                                       $ $                                                       2 . . . ",
"} . . 2                                                       $ $                                                       2 . . . ",
"} . . 2                                                       $ $                                                       2 . . . ",
"} . . 2                                                       $ $                                                       2 . . . ",
"} . . 2                                                       $ $                                                       2 . . . ",
"} . . 2                                                       $ $                                                       2 . . . ",
"} . . 2                                                       $ $                                                       2 . . . ",
"} . . 2                                                       $ $                                                       2 . . . ",
"n b b 2                                                       $ $                                                       2 b b b "};
