/* XPM */
static char * sorcerer_xpm[] = {
"64 64 379 2",
"  	c #2F484E",
". 	c #2C444A",
"+ 	c #2E474D",
"@ 	c #000000",
"# 	c #132024",
"$ 	c #132023",
"% 	c #2E464C",
"& 	c #2E494F",
"* 	c #71443F",
"= 	c #A46049",
"- 	c #2D494F",
"; 	c #010202",
"> 	c #28383D",
", 	c #767C7E",
"' 	c #2B464C",
") 	c #787D7F",
"! 	c #1B3035",
"~ 	c #25484F",
"{ 	c #D76228",
"] 	c #DA642A",
"^ 	c #2B484F",
"/ 	c #2B4348",
"( 	c #1C2D31",
"_ 	c #1A2B2F",
": 	c #121313",
"< 	c #6E7578",
"[ 	c #2C464C",
"} 	c #707779",
"| 	c #2A484F",
"1 	c #AC6248",
"2 	c #76433C",
"3 	c #2F494F",
"4 	c #283E43",
"5 	c #121F22",
"6 	c #050C0D",
"7 	c #152427",
"8 	c #162428",
"9 	c #253A3F",
"0 	c #0C171A",
"a 	c #2B4349",
"b 	c #000101",
"c 	c #0D181B",
"d 	c #2D454B",
"e 	c #2F474D",
"f 	c #2B4248",
"g 	c #0D191B",
"h 	c #2D464C",
"i 	c #010102",
"j 	c #1F3236",
"k 	c #071012",
"l 	c #0C1618",
"m 	c #0B1518",
"n 	c #070F11",
"o 	c #091315",
"p 	c #0B1517",
"q 	c #081113",
"r 	c #1C2E32",
"s 	c #2A4147",
"t 	c #1E3035",
"u 	c #1D2E32",
"v 	c #40474C",
"w 	c #624A47",
"x 	c #75534B",
"y 	c #020404",
"z 	c #4E1700",
"A 	c #773817",
"B 	c #2A4146",
"C 	c #04090B",
"D 	c #534648",
"E 	c #73514A",
"F 	c #574D4D",
"G 	c #203237",
"H 	c #1B2C30",
"I 	c #270800",
"J 	c #601F01",
"K 	c #010304",
"L 	c #263C41",
"M 	c #652102",
"N 	c #100100",
"O 	c #7D4D43",
"P 	c #CF5D25",
"Q 	c #D86936",
"R 	c #CA5821",
"S 	c #E86F33",
"T 	c #B8552D",
"U 	c #DE682D",
"V 	c #9A5945",
"W 	c #350D00",
"X 	c #7E2B03",
"Y 	c #22363B",
"Z 	c #832D03",
"` 	c #180300",
" .	c #79544B",
"..	c #B76242",
"+.	c #7E4338",
"@.	c #1E3034",
"#.	c #C3602D",
"$.	c #822B01",
"%.	c #1D2F33",
"&.	c #020506",
"*.	c #B26447",
"=.	c #9A4F39",
"-.	c #5D4645",
";.	c #170300",
">.	c #862E03",
",.	c #101D20",
"'.	c #020505",
").	c #22353A",
"!.	c #050B0C",
"~.	c #122023",
"{.	c #270700",
"].	c #5F1E01",
"^.	c #0F0100",
"/.	c #631B00",
"(.	c #651C00",
"_.	c #632002",
":.	c #2A4247",
"<.	c #263B40",
"[.	c #273C41",
"}.	c #411201",
"|.	c #953404",
"1.	c #1A1B1B",
"2.	c #919191",
"3.	c #929292",
"4.	c #9C3704",
"5.	c #1E0400",
"6.	c #160300",
"7.	c #3C1001",
"8.	c #1F1F1F",
"9.	c #A09F9F",
"0.	c #AA4E35",
"a.	c #9FA1A1",
"b.	c #AB5038",
"c.	c #3F1101",
"d.	c #060000",
"e.	c #421201",
"f.	c #983504",
"g.	c #1E1F1F",
"h.	c #A0A0A0",
"i.	c #A19493",
"j.	c #9F9F9F",
"k.	c #A29694",
"l.	c #9E3804",
"m.	c #1F0500",
"n.	c #A86153",
"o.	c #AA6354",
"p.	c #152327",
"q.	c #2D464B",
"r.	c #293F44",
"s.	c #070000",
"t.	c #A0A1A1",
"u.	c #1B2C31",
"v.	c #2B4147",
"w.	c #202B2E",
"x.	c #120101",
"y.	c #0A0000",
"z.	c #151515",
"A.	c #797979",
"B.	c #787878",
"C.	c #717171",
"D.	c #737272",
"E.	c #1E3236",
"F.	c #293D42",
"G.	c #1C2125",
"H.	c #130101",
"I.	c #160909",
"J.	c #2D2D2D",
"K.	c #393939",
"L.	c #233136",
"M.	c #1C2124",
"N.	c #181719",
"O.	c #190C0C",
"P.	c #100000",
"Q.	c #30494F",
"R.	c #1E262A",
"S.	c #15080A",
"T.	c #211919",
"U.	c #5C5C5C",
"V.	c #0E0000",
"W.	c #191719",
"X.	c #171315",
"Y.	c #2D444A",
"Z.	c #1A181B",
"`.	c #1E0202",
" +	c #200101",
".+	c #1C0101",
"++	c #150505",
"@+	c #190D0D",
"#+	c #221A1A",
"$+	c #5F5F5F",
"%+	c #5F6060",
"&+	c #150606",
"*+	c #120000",
"=+	c #140506",
"-+	c #2C4348",
";+	c #160E10",
">+	c #1F0101",
",+	c #211A1A",
"'+	c #363535",
")+	c #2A2525",
"!+	c #383838",
"~+	c #333232",
"{+	c #130000",
"]+	c #293C41",
"^+	c #283A3F",
"/+	c #150A0C",
"(+	c #1A0101",
"_+	c #1E0101",
":+	c #201313",
"<+	c #312F2F",
"[+	c #3E3E3E",
"}+	c #383939",
"|+	c #110000",
"1+	c #253439",
"2+	c #2D454A",
"3+	c #32494F",
"4+	c #6A7274",
"5+	c #445054",
"6+	c #646463",
"7+	c #646464",
"8+	c #2E484E",
"9+	c #243438",
"0+	c #140404",
"a+	c #180101",
"b+	c #1D0C0C",
"c+	c #323030",
"d+	c #140101",
"e+	c #212C30",
"f+	c #2C4247",
"g+	c #364C52",
"h+	c #5D5D5D",
"i+	c #8A8A8A",
"j+	c #2D474D",
"k+	c #202C30",
"l+	c #2D2B2B",
"m+	c #2E2B2B",
"n+	c #180C0C",
"o+	c #170101",
"p+	c #200E0E",
"q+	c #3F3D3D",
"r+	c #606060",
"s+	c #252121",
"t+	c #1D2327",
"u+	c #334A4F",
"v+	c #5A5F61",
"w+	c #838383",
"x+	c #5E5D5D",
"y+	c #8E8E8E",
"z+	c #606A6D",
"A+	c #7A7F80",
"B+	c #4C5A5E",
"C+	c #858889",
"D+	c #2C464D",
"E+	c #565A5B",
"F+	c #525151",
"G+	c #575757",
"H+	c #3A3A3A",
"I+	c #1B1111",
"J+	c #1D0101",
"K+	c #1D0202",
"L+	c #363232",
"M+	c #1C0000",
"N+	c #150000",
"O+	c #292626",
"P+	c #4E5051",
"Q+	c #5E6264",
"R+	c #5E6263",
"S+	c #5F6364",
"T+	c #6A6A6A",
"U+	c #626262",
"V+	c #3F4F53",
"W+	c #6D7476",
"X+	c #8B8D8E",
"Y+	c #546064",
"Z+	c #9E9E9E",
"`+	c #919393",
" @	c #30484E",
".@	c #646667",
"+@	c #646666",
"@@	c #696969",
"#@	c #5E5E5E",
"$@	c #171717",
"%@	c #130404",
"&@	c #1B0101",
"*@	c #312D2D",
"=@	c #383737",
"-@	c #3F3F3F",
";@	c #515151",
">@	c #606161",
",@	c #394C51",
"'@	c #2F484F",
")@	c #8D8D8D",
"!@	c #6C6D6D",
"~@	c #969696",
"{@	c #636363",
"]@	c #656767",
"^@	c #676868",
"/@	c #686969",
"(@	c #0B0B0B",
"_@	c #111111",
":@	c #070707",
"<@	c #110101",
"[@	c #190101",
"}@	c #322F2F",
"|@	c #373737",
"1@	c #334044",
"2@	c #31484E",
"3@	c #33494F",
"4@	c #435054",
"5@	c #585B5C",
"6@	c #575A5B",
"7@	c #0B0000",
"8@	c #213439",
"9@	c #150101",
"0@	c #050000",
"a@	c #010303",
"b@	c #203338",
"c@	c #172023",
"d@	c #100101",
"e@	c #1F2E32",
"f@	c #111E21",
"g@	c #040000",
"h@	c #0F0101",
"i@	c #080000",
"j@	c #2A3E44",
"k@	c #19292D",
"l@	c #152326",
"m@	c #020000",
"n@	c #0C0101",
"o@	c #160101",
"p@	c #2B4045",
"q@	c #030000",
"r@	c #283E44",
"s@	c #2C4349",
"t@	c #18272B",
"u@	c #233237",
"v@	c #150B0D",
"w@	c #010000",
"x@	c #0F1B1E",
"y@	c #253539",
"z@	c #0C1619",
"A@	c #294045",
"B@	c #203337",
"C@	c #223439",
"D@	c #2A3E43",
"E@	c #222E32",
"F@	c #0D0101",
"G@	c #222E33",
"H@	c #1A0000",
"I@	c #22363A",
"J@	c #0B0101",
"K@	c #0E0101",
"L@	c #0F0000",
"M@	c #222F33",
"N@	c #0E0A0C",
"O@	c #2E474C",
"P@	c #1F272B",
"Q@	c #090000",
"R@	c #1B2225",
"S@	c #1F1F22",
"T@	c #2A373C",
"U@	c #13191C",
"V@	c #142226",
"W@	c #2C4449",
"X@	c #142326",
"Y@	c #121F23",
"Z@	c #273D42",
"`@	c #23373C",
" #	c #070E10",
".#	c #1D2F34",
"+#	c #1E2F34",
"@#	c #030708",
"##	c #24383D",
"$#	c #17272A",
"%#	c #101C1F",
"&#	c #060D0E",
"*#	c #1A2A2E",
"=#	c #040A0C",
"-#	c #060D0F",
"                                                                                                                                ",
"                                                                                                                                ",
"                                                                                            . . . . . .                         ",
"                                                                                          + @ # $ $ # @ %                       ",
"                                                                                          + @ & * = - ; %                       ",
"                                                    % > , ' ) !                           + @ ~ { ] ^ ; %                       ",
"                                                / ( _ : < [ } @ ( ( +                     + @ | 1 2 3 ; %                       ",
"                                              4 5 @ 6 4       4 @ @ +                     + @ 7 8 8 7 @ %                       ",
"                                              9 @ 0 a           a b c d                   e f a @ @ / f e                       ",
"                                              9 @ g d           h i @ d       j k l l l m n   h @ @ d   o p l l l q r           ",
"                                              9 @ @ n s       s @ @ @ d       t u v w x d y s @ z A @ B C . D E F G H           ",
"                                              9 @ I J K L   L @ @ M N d       t u O P Q d @ @ @ R S @ @ @ . T U V G H           ",
"                                              9 @ W X @ @ Y @ @ @ Z ` d       t u  ...+.d ; @.@ #.$.@ %.&.. *.=.-.G H           ",
"                                              9 @ W X ;.Z @ @ >.@ Z ` d       t ,.%.%.%.( '.  ).@ @ ).  !.H %.%.%.~.H           ",
"                                              9 @ {.].^./.@ @ (.@ _.^.d       :.<.<.<.<.<.L   3 @ @     [.<.<.<.<.<.B           ",
"                                              9 @ }.|.1.2.2.2.3.@ 4.5.d                       3 @ @                             ",
"                                              9 @ 6.7.8.9.0.a.b.@ c.d.d                       3 @ @                             ",
"                                              9 @ e.f.g.h.i.j.k.@ l.m.d                       3 @ @                             ",
"                                              4 5 @ @ 8.9.n.a.o.@ @ p.q.                      3 @ @                             ",
"                                                r.s.@ 8.h.j.j.t.@ u.e                         3 @ @                             ",
"                                              v.w.x.y.z.A.B.C.D.E.                            3 @ @                             ",
"                                            F.G.H.H.I.J.K.K.y.9                               3 @ @                             ",
"                                        L.M.N.H.H.H.O.K.K.K.P.Q.                              3 @ @                             ",
"                                    e R.S.H.H.H.H.H.T.U.U.U.V.W.X.+                           3 @ @                             ",
"                                  Y.Z.`. + + +.+++@+#+$+$+%+&+K.*+=+-+                        3 @ @                             ",
"                                  ;+.+>+ + + +.+,+'+)+$+$+$+!+~+*+H.{+]++                     3 @ @                             ",
"                                ^+/+H.(+>+ + +_+:+<+[+$+$+$+}+|+H.H.H.{+1+2+              3+4+5+6+7+8+                          ",
"                              9+0+H.H.H.a+_+ + +>+b+c+$+$+$+}+|+(+(+(+d+H.e+f+            g+h.h+i+i++                           ",
"          8++   j+          k+l+m+m+n+H.H.o+.+ + +>+p+q+q+r+s+*+ + + +.+d+H.t+F.8+8+8+8+u+v+w+x+y+y+j+                          ",
"          z+A+B+C+D+  8+j+E+F+G+H+K.I+H.H.H.(+ + + + +J+K+L+M+J+ + + + +J+N+O+P+Q+R+R+R+S+T+U+V+G+G+                            ",
"          W+X+Y+Z+`+ @.@+@@@#@$+H+$@%@H.&@a+(+ + + + + + +H. + + + + + + +*@=@-@;@>@>@>@>@r+,@'@@ @                             ",
"          4+)@!@~@{@]@^@^@/@(@_@:@@ <@H..+[@(+ + + + + + +d+ + + + + + + +}@|@1@2@3@3@3@3@3+  3 @ @                             ",
"          4@5@5@5@6@      Q.@ @ @ @ <@H..+[@(+ + + + + + + + + + + + + +_+7@@ 8@              3 @ @                             ",
"            8+8+8+8+      Q.@ @ @ @ <@H..+.+.+ + + + + + + + + + + + + +9@0@@ 8@              3 @ @                             ",
"                          Q.@ @.a@@ k+X.[@_+ + + + + + + + + + + + + +&@d+0@@ 8@              3 @ @                             ",
"                          Q.@   &.b@h c@d@o+J+ + + + + + + + + + + +(+d+H.e@f@8@              3 @ @                             ",
"                            <.  &.d   5 g@h@9@&@ + + + + + + + + +a+{+i@x.j@k@8@              3 @ @                             ",
"                                &.d   f l@m@n@a+ + + + + + + + +o@{+p@n q@r@s@d               3 @ @                             ",
"                                &.d     t@8@u@a+ + + + +>+>+>+d+v@w@+ q @ r@                  3 @ @                             ",
"                                x@h     t@Y y@a+ + + + +H.<@@ *+3 @ + q z@A@                  3 @ @                             ",
"                                        B@C@e+a+>+J+(+(+H.@ @ {+D@7 + q f                     3 @ @                             ",
"                                          E@{+o@(+<@@ w@H.@ @ F@*+    q f                     3 @ @                             ",
"                                          G@H.H.H.<@@ w@H.@ @ @ H@    I@d                     3 @ @                             ",
"                                          G@H.d@J@<@@ @ i@K@@ @ L@                            3 @ @                             ",
"                                          M@K@q@0@<@@ @ @ H.@ @ @ $ +                         3 @ @                             ",
"                                        e+N@w@@ 0@x.d@@ @ H.@ @ @ @ O@                        3 @ @                             ",
"                                        P@Q@@ @ @ g@x.@ @ w@@ @ @ @ O@                        3 @ @                             ",
"                                      v.R@s.@ @ @ g@9@@ @ @ @ @ @ @ 4 +                       3 @ @                             ",
"                                      S@Q@@ @ @ @ 0@o+@ @ @ @ @ @ @ @ 2+                        k@k@                            ",
"                                      T@U@@ @ @ @ @ @ @ @ @ @ @ @ @ @ d                                                         ",
"                                        t@@ @ @ @ @ @ @ @ @ @ @ @ @ @ d                                                         ",
"                                        t@@ @ @ @ @ @ @ @ @ @ @ @ @ @ V@W@                                                      ",
"                                        t@@ @ @ @ @ @ @ @ @ @ @ @ @ @ @ f                                                       ",
"                                      X@K @ @ @ @ @ @ @ @ @ @ @ @ @ @ @ f                                                       ",
"                                      Y@@ @ @ @ @ @ @ @ @ @ @ @ @ @ @ @ f                                                       ",
"                                    Z@g @ @ @ @ @ @ @ @ @ @ @ @ @ @ @ @ Y d                                                     ",
"                                  `@ #@ @ @ @ @ @ @ @ @ @ @ @ @ @ @ @ @ @ r ).).4                                               ",
"                          3 %..#+#@#@ @ @ @ @ @ @ @ @ @ @ @ @ @ @ @ @ @ @ @ @ @ ,.##                                            ",
"                        Q.$#@ @ @ @ @ @ @ @ @ @ @ @ @ @ @ @ @ @ @ @ @ @ @ @ @ @ @ t@                                            ",
"                        %#@ @ @ @ @ @ @ @ @ @ @ @ @ @ @ @ @ @ @ @ @ @ @ @ @ @ @ @ &#*#                                          ",
"                    e p =#=#=#=#=#=#=#=#=#=#=#=#=#=#=#=#=#=#=#=#=#=#=#=#=#=#=#=#=#=#-#l ,.                                      ",
"                                                                                                                                ",
"                                                                                                                                ",
"                                                                                                                                "};
